<svg width="47" height="47" viewBox="0 0 47 47" fill="none" xmlns="http://www.w3.org/2000/svg">
<path d="M46.2948 23.045C46.2948 26.0713 45.6961 29.068 44.5328 31.8639C43.3695 34.6599 41.6645 37.2003 39.5151 39.3403C37.3656 41.4802 34.8139 43.1777 32.0055 44.3358C29.1971 45.4939 26.1871 46.09 23.1474 46.09C20.1076 46.09 17.0976 45.4939 14.2893 44.3358C11.4809 43.1777 8.92915 41.4802 6.77971 39.3403C4.63028 37.2003 2.92526 34.6599 1.76199 31.8639C0.598725 29.068 -2.19842e-09 26.0713 0 23.045C0 20.0187 0.598725 17.022 1.76199 14.2261C2.92526 11.4301 4.63028 8.88965 6.77971 6.74972C8.92915 4.6098 11.4809 2.91232 14.2893 1.7542C17.0976 0.596076 20.1076 -1.09072e-09 23.1474 0C26.1871 -2.18144e-09 29.1971 0.596076 32.0055 1.7542C34.8139 2.91232 37.3656 4.6098 39.5151 6.74972C41.6645 8.88965 43.3695 11.4301 44.5328 14.2261C45.6961 17.022 46.2948 20.0187 46.2948 23.045Z" fill="url(#paint0_linear_1761_191)"/>
<path d="M32.7326 20.7409C31.4718 15.3698 26.3093 12.1038 20.9117 13.2172C16.7942 14.0664 13.3833 17.5966 13.0292 22.2576C12.8842 24.1735 13.2817 25.9844 14.225 27.6653C14.3225 27.8395 14.3375 27.997 14.2842 28.187C14.0658 28.9695 13.9017 29.5954 13 32.9872C13.5392 32.8655 15.4359 32.338 17.7692 31.7288C17.8975 31.6955 18.0709 31.7038 18.1859 31.7647C20.3809 32.9339 22.6934 33.2889 25.1276 32.7622C30.5285 31.5947 34.0193 26.2211 32.7326 20.7409V20.7409ZM24.7851 18.5408C25.4959 18.5374 26.0359 19.0716 26.0368 19.7783C26.0376 20.4842 25.4968 21.0275 24.7934 21.0275C24.0934 21.0267 23.5517 20.48 23.5534 19.7742C23.5551 19.08 24.0909 18.5441 24.7851 18.5408ZM19.7217 19.4541C20.3942 19.4641 20.9609 20.0325 20.9701 20.705C20.9792 21.3767 20.3917 21.9692 19.7134 21.9726C19.0375 21.9751 18.4517 21.3876 18.455 20.7092C18.4575 20.0292 19.0484 19.4441 19.7217 19.4541V19.4541ZM29.546 23.5902C26.3759 28.022 21.3159 28.6479 17.1259 25.8836C16.7367 25.6269 16.645 25.1602 16.8917 24.791C17.135 24.4277 17.6084 24.336 17.9934 24.5827C21.8409 27.0486 25.9226 26.1086 28.2884 22.7051C28.5759 22.2918 29.0143 22.1918 29.3918 22.4493C29.7743 22.7118 29.841 23.1793 29.546 23.5902V23.5902Z" fill="white"/>
<defs>
<linearGradient id="paint0_linear_1761_191" x1="14.114" y1="7.41833" x2="37.1695" y2="47.3955" gradientUnits="userSpaceOnUse">
<stop stop-color="#00B7F0"/>
<stop offset="1" stop-color="#007CC1"/>
</linearGradient>
</defs>
</svg>
